<svg 
	id="Layer_1" data-name="Layer 1" xmlns="http://www.w3.org/2000/svg" viewBox="0 0 52.75 52.75">
	<defs>
		<style>
			.cls-0{fill:#161614;stroke:#0071af;stroke-miterlimit:10;stroke-width:2px;}
			.cls-1,.cls-2{position: absolute; }
			.cls-1{fill:#0071af;}
			.cls-1,.cls-2{stroke:#0071af;}
			.cls-1,.cls-2,.cls-3{stroke-miterlimit:10;stroke-width:1.5px;}
			.cls-2,.cls-3{fill:none;}
			.cls-3{stroke:#000;}
		</style>
	</defs>
	<title>icon</title>
	<circle class="cls-0" cx="26.37" cy="26.37" r="25.37"/> 
	<polygon class="cls-1" points="39.19 13.51 18.42 13.51 14.34 17.6 14.34 38.41 14.38 38.41 35.14 38.41 39.23 34.32 39.23 13.51 39.19 15.51"/>

	top lines
	<line class="cls-2" x1="19.75" y1="13.51" x2="19.75" y2="8"/>
	<line class="cls-2" x1="23.89" y1="13.51" x2="23.89" y2="8"/>
	<line class="cls-2" x1="28.03" y1="13.51" x2="28.03" y2="8"/>
	<line class="cls-2" x1="32.17" y1="13.51" x2="32.17" y2="8"/>
	bottom lines
	<line class="cls-2" x1="19.75" y1="43.92" x2="19.75" y2="38.41"/>
	<line class="cls-2" x1="23.89" y1="43.92" x2="23.89" y2="38.41"/>
	<line class="cls-2" x1="28.03" y1="43.92" x2="28.03" y2="38.41"/>
	<line class="cls-2" x1="32.17" y1="43.92" x2="32.17" y2="38.41"/>
	right lines
	<line class="cls-2" x1="39.41" y1="19.75" x2="45.92" y2="19.75"/>
	<line class="cls-2" x1="39.41" y1="23.89" x2="45.92" y2="23.89"/>
	<line class="cls-2" x1="39.41" y1="28.03" x2="45.92" y2="28.03"/>
	<line class="cls-2" x1="39.41" y1="32.17" x2="45.92" y2="32.17"/>
	left lines
	<line class="cls-2" x1="8.51" y1="19.75" x2="14" y2="19.75"/>
	<line class="cls-2" x1="8.51" y1="23.89" x2="14" y2="23.89"/>
	<line class="cls-2" x1="8.51" y1="28.03" x2="14" y2="28.03"/>
	<line class="cls-2" x1="8.51" y1="32.17" x2="14" y2="32.17"/> 
	<polygon class="cls-3" points="15.59  37.16 34.63 37.16 37.98 33.8 37.98 14.77 18.94 14.77 15.59 18.13 15.59 37.16"/>
</svg>