<svg id="Layer_1" data-name="Layer 1" xmlns="http://www.w3.org/2000/svg" viewBox="0 0 45.69 45.69"><defs><style>.cls-1{fill:#fff;}.cls-2{fill:#26b2ff;}.cls-3{fill:none;stroke:#26b2ff;stroke-miterlimit:10;stroke-width:1.5px;}</style></defs><title>icon</title><rect class="cls-1" width="45.69" height="45.69" rx="4" ry="4"/><polygon class="cls-2" points="11.73 7.73 4.18 11.56 11.73 15.4 11.73 7.73"/><polygon class="cls-2" points="11.73 30.29 4.18 34.12 11.73 37.95 11.73 30.29"/><polygon class="cls-2" points="33.95 7.73 41.51 11.56 33.95 15.4 33.95 7.73"/><polygon class="cls-2" points="33.95 30.29 41.51 34.12 33.95 37.95 33.95 30.29"/><polyline class="cls-3" points="9.94 11.74 14.65 11.74 31.1 33.95"/><polyline class="cls-3" points="9.94 33.95 14.65 33.95 31.1 11.74"/><polyline class="cls-3" points="35.75 11.74 31.03 11.74 14.58 33.95"/><polyline class="cls-3" points="35.75 33.95 31.03 33.95 14.58 11.74"/></svg>